<?xml version="1.0" encoding="utf-8"?>
<!-- Generator: Adobe Illustrator 16.0.0, SVG Export Plug-In . SVG Version: 6.00 Build 0)  -->
<!DOCTYPE svg PUBLIC "-//W3C//DTD SVG 1.1//EN" "http://www.w3.org/Graphics/SVG/1.1/DTD/svg11.dtd">
<svg version="1.1" id="Layer_1" xmlns="http://www.w3.org/2000/svg" xmlns:xlink="http://www.w3.org/1999/xlink" x="0px" y="0px"
	 width="93.106px" height="88.602px" viewBox="0 0 93.106 88.602" enable-background="new 0 0 93.106 88.602" xml:space="preserve">
<linearGradient id="SVGID_1_" gradientUnits="userSpaceOnUse" x1="39.2627" y1="35.4033" x2="68.6417" y2="15.5869">
	<stop  offset="0" style="stop-color:#81BA60"/>
	<stop  offset="0.3686" style="stop-color:#7FB85F"/>
	<stop  offset="0.5682" style="stop-color:#77B35E"/>
	<stop  offset="0.7273" style="stop-color:#69AA5B"/>
	<stop  offset="0.8642" style="stop-color:#569E56"/>
	<stop  offset="0.987" style="stop-color:#3D8E51"/>
	<stop  offset="1" style="stop-color:#3A8C50"/>
</linearGradient>
<path fill="url(#SVGID_1_)" d="M56.566,47.007c0.425,0.425,0.99,0.659,1.591,0.659c0.601,0,1.166-0.234,1.591-0.659l14.918-14.918
	v-4.65c0-5.271-4.272-9.544-9.544-9.544H27.453L56.566,47.007L56.566,47.007z"/>
<linearGradient id="SVGID_2_" gradientUnits="userSpaceOnUse" x1="52.7642" y1="44.0044" x2="61.4669" y2="76.4837">
	<stop  offset="0" style="stop-color:#78D1FD"/>
	<stop  offset="0.2158" style="stop-color:#75CFFD"/>
	<stop  offset="0.3946" style="stop-color:#6ACAFD"/>
	<stop  offset="0.5601" style="stop-color:#59C1FD"/>
	<stop  offset="0.7176" style="stop-color:#41B5FD"/>
	<stop  offset="0.8681" style="stop-color:#22A5FD"/>
	<stop  offset="1" style="stop-color:#0093FD"/>
</linearGradient>
<path fill="url(#SVGID_2_)" d="M65.123,75.164c5.271,0,9.544-4.273,9.544-9.544V38.136L37.639,75.164H65.123z"/>
<linearGradient id="SVGID_3_" gradientUnits="userSpaceOnUse" x1="49.333" y1="38.5225" x2="11.838" y2="52.9154">
	<stop  offset="0" style="stop-color:#E1D6C7"/>
	<stop  offset="0.4216" style="stop-color:#DFD4C5"/>
	<stop  offset="0.6234" style="stop-color:#D7CCBD"/>
	<stop  offset="0.7786" style="stop-color:#CABFB0"/>
	<stop  offset="0.909" style="stop-color:#B8AD9E"/>
	<stop  offset="1" style="stop-color:#A69B8C"/>
</linearGradient>
<path fill="url(#SVGID_3_)" d="M53.542,50.031L22.501,18.99c-3.034,1.598-5.104,4.781-5.104,8.448V65.62
	c0,5.271,4.273,9.544,9.544,9.544h4.651l21.951-21.951C54.42,52.336,54.42,50.909,53.542,50.031z"/>
<path fill="#FFFFFF" d="M59.748,47.007c-0.425,0.425-0.99,0.659-1.591,0.659c-0.601,0-1.167-0.234-1.591-0.659l0,0L27.453,17.895
	h-0.512c-1.603,0-3.113,0.397-4.439,1.096l31.041,31.041c0.878,0.878,0.878,2.305,0,3.183L31.592,75.164h6.047l37.028-37.028v-6.047
	L59.748,47.007z"/>
<g>
	<circle fill="#E92330" cx="30.948" cy="44.99" r="1.681"/>
	<g>
		<path fill="none" stroke="#E92330" stroke-linecap="round" stroke-miterlimit="10" d="M28.028,47.911
			c-1.613-1.613-1.614-4.229,0-5.842"/>
		<path fill="none" stroke="#E92330" stroke-linecap="round" stroke-miterlimit="10" d="M33.869,42.069
			c1.613,1.613,1.613,4.229,0,5.842"/>
	</g>
	<g>
		<path fill="none" stroke="#E92330" stroke-linecap="round" stroke-miterlimit="10" d="M25.854,50.084
			c-2.814-2.814-2.815-7.375,0-10.189"/>
		<path fill="none" stroke="#E92330" stroke-linecap="round" stroke-miterlimit="10" d="M36.042,39.896
			c2.814,2.814,2.814,7.375,0,10.189"/>
	</g>
</g>
<g>
	<path fill="#E92330" d="M35.128,27.089c-0.118,0.124-0.297,0.171-0.461,0.121c-0.164-0.05-0.287-0.187-0.317-0.356l-1.56-8.76
		l-2.455,15.725c-0.033,0.212-0.209,0.373-0.424,0.385c-0.009,0-0.018,0-0.026,0c-0.204,0-0.384-0.136-0.439-0.334L26.5,23.161
		l-0.895,1.827c-0.076,0.156-0.235,0.255-0.409,0.255h-9.247c0.815,1.323,2.111,2.932,4.247,4.922
		c1.405,1.309,8.964,7.901,10.752,9.46c1.789-1.559,9.348-8.151,10.753-9.46c2.135-1.99,3.431-3.599,4.247-4.922h-9.051
		L35.128,27.089z"/>
	<linearGradient id="SVGID_4_" gradientUnits="userSpaceOnUse" x1="30.9487" y1="8.6138" x2="30.9487" y2="31.582">
		<stop  offset="0" style="stop-color:#EE6269"/>
		<stop  offset="0.1885" style="stop-color:#EF5F66"/>
		<stop  offset="0.3342" style="stop-color:#F3575C"/>
		<stop  offset="0.4652" style="stop-color:#FA4A4C"/>
		<stop  offset="0.5277" style="stop-color:#FF4141"/>
	</linearGradient>
	<path fill="url(#SVGID_4_)" d="M26.21,21.679c0.083-0.17,0.263-0.271,0.452-0.253c0.188,0.018,0.347,0.15,0.396,0.333l2.704,9.824
		l2.548-16.325c0.034-0.22,0.223-0.383,0.445-0.386c0.216,0.002,0.415,0.157,0.454,0.376l1.88,10.563l1.283-1.338
		c0.086-0.09,0.205-0.14,0.329-0.14h9.758c0.547-1.079,0.771-1.94,0.935-2.653c2.104-9.139-4.43-12.416-5.984-12.766
		c-6.3-1.416-9.445,2.556-10.463,4.229c-1.018-1.673-4.163-5.645-10.462-4.229c-1.554,0.35-8.087,3.626-5.984,12.766
		c0.164,0.713,0.388,1.575,0.935,2.653h9.475L26.21,21.679z"/>
	<path fill="#FFFFFF" d="M36.702,24.332c-0.124,0-0.243,0.05-0.329,0.14l-1.283,1.338l-1.88-10.563
		c-0.039-0.219-0.237-0.374-0.454-0.376c-0.223,0.002-0.411,0.166-0.445,0.386l-2.548,16.325l-2.704-9.824
		c-0.05-0.183-0.208-0.315-0.396-0.333c-0.189-0.018-0.369,0.083-0.452,0.253l-1.299,2.653h-9.475
		c0.146,0.288,0.314,0.591,0.512,0.911h9.247c0.174,0,0.333-0.099,0.409-0.255l0.895-1.827l2.947,10.708
		c0.055,0.198,0.235,0.334,0.439,0.334c0.008,0,0.018,0,0.026,0c0.214-0.012,0.391-0.173,0.424-0.385l2.455-15.725l1.56,8.76
		c0.03,0.169,0.153,0.307,0.317,0.356c0.164,0.05,0.343,0.003,0.461-0.121l1.769-1.846h9.051c0.198-0.32,0.366-0.623,0.512-0.911
		H36.702z"/>
</g>
</svg>
