<?xml version="1.0" encoding="UTF-8" standalone="no"?>
<svg width="242px" height="78px" viewBox="0 0 242 78" version="1.1" xmlns="http://www.w3.org/2000/svg" xmlns:xlink="http://www.w3.org/1999/xlink">
    <!-- Generator: Sketch 3.8.3 (29802) - http://www.bohemiancoding.com/sketch -->
    <title>logo_liferate_color</title>
    <desc>Created with Sketch.</desc>
    <defs></defs>
    <g id="Page-1" stroke="none" stroke-width="1" fill="none" fill-rule="evenodd">
        <g id="logo_liferate_color" fill="#FFFFFF">
            <g id="Group">
                <path d="M0.94,64.947 C1.587,64.029 2.383,63.234 3.328,62.561 C4.27,61.885 5.283,61.333 6.362,60.902 C7.602,60.361 8.856,59.903 10.123,59.527 C11.39,59.148 12.673,58.77 13.967,58.393 C19.682,56.882 25.536,55.831 31.526,55.239 C32.118,55.128 32.723,55.062 33.345,55.036 C33.964,55.008 34.599,54.967 35.247,54.914 C38.645,50.383 41.882,45.773 44.955,41.077 C48.03,36.387 50.971,31.585 53.774,26.678 C55.068,24.411 56.309,22.134 57.497,19.839 C58.682,17.549 59.814,15.187 60.894,12.76 C61.973,10.495 62.835,8.258 63.482,6.045 C63.807,5.182 64.049,4.239 64.211,3.212 C62.107,3.859 60.069,4.683 58.102,5.68 C56.133,6.68 54.233,7.771 52.398,8.957 C49.808,10.576 47.354,12.343 45.037,14.256 C42.716,16.173 40.477,18.209 38.32,20.365 C36.379,22.306 34.504,24.384 32.696,26.594 C30.889,28.806 29.421,31.207 28.288,33.796 C27.746,34.982 27.397,36.14 27.234,37.274 L27.234,37.839 C27.234,38.058 27.221,38.245 27.195,38.408 C27.167,38.569 27.099,38.664 26.992,38.691 C26.885,38.717 26.723,38.624 26.507,38.408 C25.644,37.544 25.091,36.48 24.848,35.211 C24.605,33.944 24.565,32.717 24.726,31.531 C24.888,30.396 25.184,29.292 25.617,28.212 C26.048,27.133 26.587,26.109 27.233,25.137 C27.88,24.167 28.596,23.223 29.379,22.305 C30.161,21.39 30.928,20.526 31.685,19.715 C33.249,17.991 34.934,16.373 36.742,14.861 C38.549,13.353 40.449,11.975 42.446,10.735 C46.492,8.093 50.698,5.881 55.067,4.101 C56.146,3.669 57.198,3.28 58.222,2.928 C59.246,2.577 60.3,2.269 61.378,1.996 C61.916,1.891 62.44,1.834 62.955,1.834 C63.467,1.834 63.966,1.89 64.452,1.996 C64.558,1.996 64.666,2.052 64.777,2.158 C65.045,2.268 65.314,2.375 65.586,2.481 C65.853,2.591 65.935,2.699 65.829,2.806 C66.637,3.4 67.297,4.088 67.808,4.87 C68.321,5.651 68.603,6.582 68.659,7.661 C68.714,8.201 68.645,8.74 68.457,9.279 C68.268,9.819 68.094,10.359 67.932,10.896 L66.475,15.184 C65.394,17.936 64.21,20.645 62.916,23.318 C61.619,25.985 60.245,28.614 58.788,31.205 C56.414,35.359 53.839,39.374 51.06,43.259 C48.281,47.143 45.358,50.949 42.283,54.668 C46.597,54.614 50.859,54.843 55.066,55.356 C59.272,55.867 63.427,56.716 67.525,57.904 C68.766,58.281 70.034,58.684 71.33,59.119 C72.623,59.55 73.757,60.277 74.727,61.305 C75.48,62.057 76.102,63.003 76.587,64.135 C77.074,65.268 77.236,66.4 77.074,67.534 C77.017,67.964 76.883,68.086 76.668,67.898 C76.454,67.706 76.209,67.534 75.94,67.372 C74.86,66.616 73.783,66.049 72.704,65.673 C71.408,65.079 70.115,64.593 68.821,64.216 C67.524,63.838 66.203,63.487 64.855,63.163 C60.486,62.084 56.064,61.249 51.586,60.655 C47.108,60.061 42.578,59.711 37.993,59.602 L37.751,59.927 C36.834,61.005 35.861,62.016 34.837,62.96 C33.811,63.904 32.679,64.726 31.439,65.43 C30.359,66.076 29.119,66.563 27.717,66.887 C27.447,66.993 27.192,67.06 26.948,67.087 C26.707,67.114 26.45,67.153 26.181,67.209 C26.072,67.209 25.857,67.249 25.533,67.33 C25.209,67.41 24.996,67.397 24.887,67.291 C24.725,67.291 24.686,67.209 24.765,67.047 C24.847,66.887 24.969,66.71 25.131,66.52 C25.293,66.332 25.466,66.157 25.656,65.995 C25.844,65.834 25.966,65.725 26.021,65.673 L28.933,62.598 L31.524,59.603 L30.431,59.603 C30.078,59.603 29.715,59.631 29.339,59.685 C26.587,59.793 23.877,59.982 21.207,60.251 C18.537,60.522 15.879,60.926 13.237,61.466 C11.943,61.734 10.648,62.043 9.353,62.395 C8.06,62.746 6.793,63.138 5.552,63.569 C5.011,63.785 4.472,63.988 3.933,64.174 C3.393,64.365 2.852,64.593 2.315,64.865 L1.183,65.349 C1.019,65.456 0.912,65.443 0.858,65.307 C0.807,65.175 0.833,65.053 0.94,64.947 L0.94,64.947 Z" id="Shape"></path>
                <path d="M67.204,55.886 C66.881,54.915 66.989,54.054 67.527,53.298 L67.933,52.733 C67.661,52.517 67.405,52.3 67.163,52.084 C66.919,51.872 66.692,51.627 66.475,51.356 C66.151,50.818 66.044,50.196 66.151,49.496 C66.26,48.795 66.342,48.177 66.396,47.636 C66.504,46.935 66.61,46.246 66.718,45.573 C66.827,44.901 66.989,44.239 67.203,43.591 C67.526,42.348 67.918,41.12 68.376,39.909 C68.833,38.695 69.413,37.521 70.117,36.388 C70.492,35.851 70.855,35.325 71.21,34.811 C71.559,34.298 71.948,33.798 72.381,33.314 C72.703,32.882 73.056,32.465 73.433,32.06 C73.809,31.655 74.268,31.345 74.81,31.129 C75.24,31.023 75.684,30.981 76.144,31.009 C76.601,31.036 77.046,31.076 77.479,31.129 C77.911,31.238 78.235,31.317 78.451,31.373 C78.666,31.427 78.854,31.492 79.016,31.576 C79.178,31.656 79.231,31.724 79.178,31.777 C76.264,35.608 73.891,39.815 72.058,44.4 C71.787,45.208 71.517,46.004 71.249,46.787 C70.978,47.567 70.71,48.364 70.44,49.173 C71.841,47.232 73.459,45.344 75.294,43.51 C76.318,42.487 77.384,41.554 78.489,40.719 C79.593,39.883 80.741,39.089 81.928,38.332 C83.005,37.738 84.153,37.361 85.367,37.198 C86.579,37.037 87.752,37.172 88.887,37.604 C89.101,37.712 89.411,37.861 89.816,38.048 C90.221,38.238 90.181,38.438 89.697,38.656 C88.563,39.088 87.512,39.572 86.539,40.113 C85.408,40.814 84.302,41.527 83.223,42.256 C82.145,42.985 81.092,43.754 80.07,44.562 C77.911,46.181 75.819,47.892 73.799,49.701 C71.777,51.509 69.901,53.435 68.174,55.486 C68.122,55.539 68.039,55.618 67.934,55.729 C67.824,55.836 67.716,55.941 67.611,56.052 C67.502,56.157 67.406,56.214 67.327,56.214 C67.243,56.212 67.204,56.103 67.204,55.886 L67.204,55.886 Z M86.218,17.293 C85.623,18.374 85.046,19.464 84.478,20.57 C83.912,21.677 83.332,22.768 82.74,23.846 C82.74,23.901 82.671,24.049 82.537,24.292 C82.403,24.535 82.281,24.805 82.173,25.1 C82.065,25.399 81.875,25.735 81.607,26.114 C81.5,26.114 81.378,26.048 81.242,25.91 C81.107,25.775 81.042,25.681 81.042,25.626 C80.557,25.248 80.125,24.819 79.746,24.333 C78.829,23.146 78.573,21.919 78.979,20.65 C79.381,19.383 80.151,18.319 81.284,17.455 C81.715,17.131 82.186,16.928 82.702,16.849 C83.212,16.768 83.764,16.753 84.357,16.806 C84.411,16.806 84.547,16.821 84.763,16.849 C84.978,16.875 85.195,16.916 85.41,16.969 C85.624,17.024 85.826,17.078 86.016,17.131 C86.204,17.187 86.272,17.24 86.218,17.293 L86.218,17.293 Z" id="Shape"></path>
                <path d="M85.409,34.123 C85.839,33.261 86.404,32.559 87.107,32.018 C87.806,31.481 88.563,31.022 89.372,30.643 L90.019,30.319 C91.581,26.601 93.364,23.067 95.359,19.721 C96.059,18.482 96.802,17.254 97.584,16.04 C98.366,14.827 99.189,13.653 100.053,12.521 C100.861,11.442 101.821,10.552 102.925,9.851 C104.029,9.15 105.282,8.746 106.688,8.637 C107.441,8.528 108.063,8.584 108.548,8.799 C108.602,8.799 108.79,8.853 109.115,8.961 C109.545,8.528 110.03,8.139 110.571,7.788 C111.109,7.437 111.703,7.289 112.349,7.342 C112.403,7.342 112.58,7.37 112.877,7.424 C113.17,7.478 113.494,7.546 113.848,7.625 C114.198,7.707 114.494,7.801 114.735,7.91 C114.979,8.017 115.072,8.098 115.018,8.153 C114.049,9.177 113.131,10.27 112.27,11.43 C111.406,12.59 110.65,13.791 110.003,15.03 C109.733,15.623 109.49,16.218 109.275,16.808 C109.057,17.402 108.895,18.022 108.789,18.67 C108.789,18.832 108.679,18.86 108.466,18.751 C108.249,18.644 108.023,18.507 107.778,18.347 C107.536,18.183 107.308,18.011 107.09,17.822 C106.876,17.632 106.767,17.51 106.767,17.456 C106.23,16.807 106.012,16.08 106.121,15.27 C106.229,14.462 106.416,13.68 106.687,12.925 C106.903,11.953 107.308,11.063 107.9,10.256 C107.144,10.902 106.469,11.604 105.879,12.359 C105.282,13.113 104.691,13.869 104.098,14.625 C103.289,15.756 102.521,16.917 101.791,18.104 C101.063,19.29 100.35,20.504 99.646,21.744 C99.051,22.823 98.487,23.875 97.948,24.9 C97.409,25.924 96.897,26.977 96.411,28.055 C97.488,27.785 98.583,27.571 99.689,27.407 C100.793,27.247 101.884,27.219 102.965,27.328 C103.665,27.488 104.42,27.785 105.229,28.214 C105.445,28.325 105.768,28.498 106.202,28.74 C106.631,28.983 106.876,29.24 106.929,29.509 C107.09,29.618 107.025,29.699 106.727,29.752 C106.431,29.808 106.254,29.86 106.203,29.914 L103.208,30.401 C102.023,30.67 100.849,30.914 99.69,31.128 C98.528,31.344 97.354,31.589 96.169,31.857 L94.553,32.18 C94.119,33.151 93.701,34.136 93.297,35.134 C92.893,36.133 92.474,37.116 92.044,38.086 C90.963,40.838 89.927,43.604 88.929,46.382 C87.93,49.161 87.027,52.002 86.219,54.915 C85.84,56.212 85.503,57.507 85.207,58.8 C84.911,60.096 84.628,61.415 84.356,62.764 C84.25,63.303 84.168,63.828 84.113,64.342 C84.059,64.855 84.007,65.405 83.953,65.999 C83.953,66.108 83.98,66.311 84.033,66.609 C84.089,66.903 84.059,67.105 83.953,67.214 C83.846,67.32 83.724,67.335 83.588,67.254 C83.454,67.175 83.332,67.105 83.225,67.051 C82.631,66.78 82.092,66.444 81.605,66.039 C81.12,65.636 80.907,65.082 80.959,64.383 C81.016,63.786 81.067,63.195 81.12,62.601 C81.177,62.006 81.257,61.414 81.365,60.823 C81.526,59.421 81.742,58.03 82.011,56.655 C82.282,55.28 82.55,53.889 82.82,52.489 C83.468,49.575 84.21,46.706 85.046,43.872 C85.882,41.041 86.839,38.249 87.918,35.499 L88.648,33.555 L86.703,34.202 C86.651,34.202 86.528,34.245 86.341,34.324 C86.152,34.406 85.961,34.459 85.775,34.486 C85.586,34.514 85.438,34.514 85.329,34.486 C85.22,34.459 85.246,34.339 85.409,34.123 L85.409,34.123 Z" id="Shape"></path>
                <path d="M97.868,60.096 C97.759,59.5 97.799,58.962 97.986,58.476 C98.177,57.992 98.406,57.531 98.676,57.101 C98.405,56.993 98.108,56.79 97.784,56.494 C97.46,56.198 97.246,55.994 97.138,55.887 C96.706,55.456 96.465,54.945 96.409,54.35 C96.356,53.758 96.331,53.164 96.331,52.572 C96.222,49.769 96.627,47.015 97.545,44.319 C97.975,43.026 98.515,41.743 99.162,40.475 C99.808,39.209 100.537,38.008 101.346,36.875 C101.779,36.28 102.197,35.73 102.6,35.216 C103.005,34.702 103.45,34.177 103.936,33.638 C104.368,33.206 104.797,32.762 105.23,32.303 C105.662,31.845 106.174,31.482 106.767,31.211 C107.521,30.887 108.277,30.687 109.032,30.605 C109.787,30.524 110.543,30.512 111.299,30.565 C111.732,30.672 112.134,30.754 112.514,30.807 C112.89,30.861 113.295,30.995 113.728,31.211 C113.781,31.211 113.916,31.28 114.13,31.414 C114.344,31.548 114.453,31.669 114.453,31.777 C114.994,32.264 115.427,32.803 115.75,33.397 C115.964,33.773 116.112,34.164 116.192,34.57 C116.274,34.975 116.261,35.391 116.153,35.823 C115.99,36.307 115.736,36.781 115.387,37.239 C115.033,37.698 114.697,38.116 114.372,38.493 C113.617,39.41 112.809,40.244 111.944,41.001 C111.083,41.757 110.166,42.459 109.193,43.105 C108.17,43.807 107.13,44.468 106.078,45.086 C105.028,45.708 103.961,46.314 102.884,46.908 C102.237,47.231 101.48,47.582 100.617,47.961 C100.457,48.444 100.306,48.931 100.173,49.415 C100.037,49.901 99.917,50.415 99.809,50.953 C99.594,52.141 99.431,53.408 99.324,54.756 C99.269,54.863 99.254,55.08 99.284,55.403 C99.31,55.728 99.298,56.051 99.241,56.375 C99.566,55.94 99.918,55.553 100.295,55.201 C100.672,54.848 101.023,54.485 101.347,54.108 C102.265,53.03 103.195,51.952 104.138,50.872 C105.082,49.795 106.04,48.718 107.011,47.637 C108.898,45.586 110.907,43.645 113.037,41.812 C115.169,39.976 117.448,38.36 119.875,36.956 C120.953,36.364 122.086,36.148 123.272,36.308 C124.458,36.471 125.483,37.037 126.348,38.009 C126.619,38.278 126.698,38.438 126.588,38.493 C126.479,38.546 126.265,38.628 125.942,38.736 C125.347,38.898 124.796,39.114 124.281,39.384 C123.77,39.653 123.246,39.949 122.709,40.273 C120.118,41.73 117.688,43.403 115.426,45.29 C113.158,47.18 110.892,49.093 108.629,51.035 L101.591,57.346 C101.156,57.778 100.698,58.197 100.214,58.6 C99.728,59.005 99.269,59.424 98.838,59.854 C98.73,59.961 98.541,60.138 98.271,60.38 C98.002,60.62 97.868,60.526 97.868,60.096 L97.868,60.096 Z M108.467,38.735 C109.327,37.873 110.166,36.983 110.975,36.064 C111.783,35.15 112.513,34.177 113.159,33.151 L113.727,32.18 C111.407,33.261 109.328,34.757 107.495,36.671 C105.662,38.587 104.124,40.675 102.885,42.942 C102.505,43.481 102.156,44.153 101.832,44.964 C103.018,43.993 104.151,42.982 105.23,41.93 C106.309,40.877 107.386,39.814 108.467,38.735 L108.467,38.735 Z" id="Shape"></path>
                <path d="M165.669,1.19 C164.696,2.483 163.752,3.78 162.835,5.074 C161.921,6.368 161,7.69 160.086,9.038 C162.516,8.23 164.926,7.516 167.326,6.895 C169.727,6.274 172.166,5.721 174.647,5.235 C175.888,4.966 177.172,4.738 178.492,4.548 C179.815,4.359 181.122,4.264 182.415,4.264 C183.333,4.264 184.197,4.426 185.006,4.749 C185.22,4.858 185.626,5.033 186.219,5.275 C186.815,5.518 187.163,5.799 187.273,6.125 L187.273,6.287 C188.028,7.528 188.335,8.783 188.202,10.049 C188.067,11.318 187.688,12.546 187.072,13.732 C186.448,14.918 185.678,16.036 184.765,17.087 C183.844,18.14 183.009,19.098 182.256,19.961 C178.317,24.439 173.892,28.485 168.985,32.098 C164.941,35.119 160.625,37.762 156.042,40.024 C156.794,42.453 157.685,44.854 158.712,47.229 C159.733,49.601 160.816,51.919 161.948,54.186 C163.185,56.666 164.522,59.106 165.954,61.507 C167.379,63.907 169.039,66.132 170.931,68.184 C171.683,69.1 172.517,69.934 173.439,70.69 C173.706,70.907 174.029,71.095 174.408,71.257 C174.785,71.417 174.785,71.635 174.408,71.904 C173.652,72.497 172.682,72.781 171.494,72.755 C170.307,72.726 169.285,72.552 168.42,72.228 C167.34,71.905 166.44,71.378 165.711,70.651 C164.982,69.924 164.321,69.127 163.732,68.264 C162.972,67.294 162.256,66.295 161.584,65.27 C160.911,64.246 160.277,63.192 159.684,62.116 C158.658,60.226 157.753,58.312 156.974,56.371 C156.19,54.428 155.503,52.433 154.912,50.383 C154.424,48.926 154.009,47.456 153.656,45.973 C153.305,44.489 152.996,43.02 152.724,41.564 C151.702,41.997 150.662,42.386 149.613,42.738 C148.56,43.089 147.438,43.209 146.255,43.101 C145.015,42.938 143.8,42.562 142.615,41.969 C142.503,41.969 142.371,41.915 142.209,41.806 C142.047,41.699 141.855,41.592 141.642,41.482 C138.461,47.469 135.547,53.618 132.905,59.93 L131.608,63.246 C131.608,63.355 131.543,63.596 131.407,63.975 C131.271,64.351 131.124,64.407 130.961,64.137 C130.315,63.114 129.869,62.006 129.629,60.82 C129.384,59.633 129.288,58.447 129.345,57.258 C129.454,55.804 129.777,54.414 130.316,53.094 C130.853,51.772 131.421,50.464 132.014,49.169 C132.609,47.82 133.242,46.47 133.919,45.124 C134.587,43.777 135.305,42.453 136.06,41.159 C140.27,33.393 144.88,25.976 149.896,18.91 C148.44,19.717 147.012,20.556 145.61,21.418 C144.208,22.28 142.804,23.171 141.402,24.087 C139.511,25.328 137.637,26.635 135.78,28.011 C133.92,29.386 132.097,30.83 130.316,32.34 C129.455,32.986 128.616,33.663 127.808,34.363 C126.999,35.064 126.217,35.794 125.462,36.547 L123.276,38.731 C123.223,38.787 123.128,38.881 122.993,39.015 C122.856,39.149 122.722,39.27 122.591,39.377 C122.454,39.489 122.347,39.541 122.264,39.541 C122.185,39.541 122.146,39.434 122.146,39.218 C121.875,36.898 122.199,34.714 123.117,32.662 C123.71,31.369 124.435,30.263 125.301,29.346 C126.162,28.43 127.136,27.513 128.214,26.595 C130.317,24.815 132.5,23.145 134.767,21.578 C137.032,20.015 139.376,18.533 141.806,17.13 C146.339,14.54 151.112,12.303 156.126,10.414 C157.8,8.149 159.446,6.019 161.063,4.023 C161.493,3.591 161.897,3.133 162.277,2.647 C162.653,2.161 163.112,1.758 163.653,1.433 C164.138,1.221 164.623,1.059 165.108,0.948 L165.553,0.948 C165.736,0.947 165.775,1.028 165.669,1.19 L165.669,1.19 Z M153.937,25.544 C153.883,26.947 153.91,28.349 154.019,29.752 C154.123,31.154 154.312,32.557 154.582,33.959 C156.632,32.719 158.671,31.465 160.693,30.196 C162.714,28.931 164.724,27.623 166.717,26.273 C168.984,24.71 171.183,23.09 173.314,21.419 C175.442,19.746 177.482,17.965 179.422,16.078 C180.339,15.161 181.23,14.257 182.091,13.368 C182.955,12.477 183.763,11.52 184.519,10.496 C184.843,10.011 185.153,9.538 185.45,9.08 C185.747,8.623 186.028,8.123 186.299,7.582 C186.352,7.529 186.42,7.381 186.504,7.138 C186.582,6.896 186.676,6.666 186.783,6.45 C186.515,6.504 186.219,6.52 185.896,6.492 C185.572,6.464 185.354,6.45 185.246,6.45 C184.6,6.504 183.953,6.559 183.306,6.612 C182.66,6.666 182.013,6.747 181.367,6.855 C179.961,7.126 178.589,7.409 177.239,7.704 C175.889,8.001 174.516,8.366 173.11,8.796 C170.091,9.713 167.152,10.751 164.295,11.911 C161.434,13.071 158.603,14.353 155.797,15.755 C154.558,17.806 153.357,19.88 152.198,21.985 C151.036,24.088 149.891,26.166 148.759,28.214 L142.448,39.865 L143.176,39.621 L146.09,38.409 L151.996,35.415 C151.888,34.443 151.821,33.487 151.795,32.544 C151.766,31.598 151.778,30.643 151.835,29.67 C151.888,29.131 151.928,28.591 151.956,28.053 C151.979,27.514 152.155,27.029 152.481,26.596 C152.804,26.273 153.058,26.031 153.25,25.867 C153.438,25.707 153.6,25.573 153.736,25.464 C153.87,25.354 153.937,25.381 153.937,25.544 L153.937,25.544 Z" id="Shape"></path>
                <path d="M192.568,36.146 C192.135,38.195 191.787,40.218 191.516,42.215 C191.245,44.21 191.084,46.234 191.031,48.283 L191.031,49.74 C191.516,48.661 192.057,47.61 192.651,46.583 C193.245,45.559 193.892,44.561 194.59,43.591 C195.29,42.674 196.059,41.811 196.897,41 C197.733,40.192 198.609,39.41 199.527,38.655 C199.96,38.331 200.419,38.008 200.904,37.683 C201.389,37.359 201.926,37.196 202.52,37.196 C202.953,37.144 203.399,37.209 203.856,37.399 C204.311,37.589 204.731,37.817 205.111,38.086 C205.382,38.249 205.486,38.37 205.434,38.451 C205.381,38.531 205.243,38.626 205.029,38.734 C204.595,39.005 204.193,39.286 203.817,39.584 C203.437,39.88 203.031,40.19 202.602,40.513 C200.714,42.078 198.96,43.75 197.342,45.531 C196.587,46.448 195.858,47.364 195.159,48.281 C194.455,49.199 193.808,50.142 193.215,51.112 C192.568,52.194 192.11,53.162 191.842,54.026 C191.786,54.13 191.69,54.415 191.559,54.874 C191.42,55.332 191.275,55.454 191.114,55.238 C190.572,55.238 190.034,55.158 189.494,54.995 C189.17,54.888 188.847,54.725 188.524,54.511 C188.201,54.295 187.956,54.053 187.795,53.782 C187.527,53.405 187.378,52.973 187.353,52.488 C187.323,52.001 187.257,51.545 187.148,51.112 C187.04,50.089 187.013,49.078 187.069,48.079 C187.122,47.082 187.257,46.07 187.472,45.044 C187.472,44.881 187.528,44.639 187.632,44.316 C187.257,44.91 186.907,45.504 186.583,46.095 C186.261,46.691 185.907,47.285 185.53,47.876 C184.936,48.793 184.343,49.697 183.749,50.588 C183.155,51.477 182.481,52.355 181.729,53.216 C181.134,54.027 180.324,54.348 179.3,54.187 C179.082,54.187 178.785,54.106 178.409,53.945 C178.409,53.999 178.353,54.027 178.248,54.027 C178.139,54.027 177.99,53.945 177.802,53.783 C177.614,53.623 177.466,53.513 177.358,53.459 C176.334,52.599 175.688,51.639 175.417,50.589 C175.147,49.536 175.203,48.389 175.579,47.149 C176.334,44.399 177.522,41.783 179.14,39.301 C179.948,38.06 180.866,36.931 181.889,35.904 C182.914,34.878 183.993,33.907 185.125,32.99 C186.098,32.237 187.121,31.589 188.201,31.048 C189.278,30.51 190.463,30.347 191.76,30.563 C191.814,30.563 191.966,30.615 192.206,30.724 C192.446,30.833 192.718,30.954 193.015,31.088 C193.312,31.222 193.54,31.359 193.701,31.49 C193.867,31.628 193.893,31.722 193.784,31.775 C191.517,32.856 189.521,34.405 187.796,36.428 C186.069,38.451 184.563,40.513 183.269,42.618 C182.51,43.805 181.797,45.005 181.121,46.218 C180.448,47.432 179.892,48.715 179.465,50.061 C179.033,51.085 178.736,52.138 178.574,53.216 C179.867,51.707 181.095,50.128 182.257,48.484 C183.414,46.839 184.615,45.234 185.857,43.672 L188.931,39.706 L189.334,38.897 C189.549,38.465 189.792,38.06 190.063,37.683 C190.334,37.306 190.685,36.983 191.117,36.712 C191.17,36.658 191.248,36.604 191.357,36.551 C191.465,36.498 191.562,36.443 191.641,36.388 C191.723,36.334 191.816,36.253 191.925,36.146 C192.086,35.982 192.222,35.93 192.327,35.982 C192.489,35.982 192.568,36.038 192.568,36.146 L192.568,36.146 Z" id="Shape"></path>
                <path d="M192.892,18.346 C195.858,18.237 198.811,18.13 201.752,18.02 C204.69,17.915 207.644,17.806 210.611,17.699 C210.987,16.889 211.379,16.094 211.785,15.311 C212.187,14.529 212.603,13.761 213.04,13.005 C213.468,12.249 213.874,11.548 214.253,10.901 C214.631,10.255 215.25,9.796 216.111,9.526 C216.164,9.526 216.395,9.498 216.8,9.443 C217.205,9.391 217.622,9.35 218.054,9.323 C218.483,9.297 218.863,9.282 219.186,9.282 C219.51,9.282 219.644,9.336 219.591,9.443 C218.945,10.793 218.295,12.128 217.647,13.449 C217.001,14.771 216.38,16.105 215.788,17.454 L222.18,16.968 C224.931,16.699 227.669,16.376 230.393,15.996 C233.115,15.62 235.774,14.945 238.365,13.973 L241.035,12.68 C241.087,12.626 241.235,12.532 241.48,12.397 C241.721,12.263 241.813,12.303 241.76,12.519 C241.868,12.626 241.882,12.816 241.803,13.084 C241.721,13.355 241.654,13.543 241.597,13.65 C241.331,14.89 240.776,15.943 239.941,16.804 C239.103,17.67 238.094,18.317 236.907,18.747 C235.018,19.448 233.074,19.948 231.081,20.244 C229.086,20.54 227.09,20.742 225.095,20.851 C223.259,20.958 221.427,21.026 219.593,21.054 C217.759,21.082 215.924,21.067 214.09,21.011 C212.743,23.981 211.45,26.948 210.21,29.912 C208.966,32.879 207.807,35.901 206.728,38.974 C206.082,40.753 205.46,42.534 204.868,44.315 C204.273,46.094 203.788,47.931 203.412,49.817 C203.949,48.792 204.505,47.793 205.068,46.822 C205.636,45.853 206.243,44.909 206.89,43.991 C208.292,41.888 209.965,40.08 211.906,38.571 C212.338,38.247 212.77,37.937 213.203,37.638 C213.631,37.345 214.143,37.194 214.736,37.194 C215.116,37.249 215.536,37.345 215.994,37.479 C216.448,37.613 216.842,37.815 217.165,38.084 C217.381,38.302 217.449,38.434 217.367,38.489 C217.287,38.542 217.112,38.652 216.842,38.813 C216.41,39.084 215.994,39.393 215.589,39.742 C215.187,40.095 214.793,40.459 214.412,40.835 C213.496,41.644 212.648,42.495 211.866,43.384 C211.084,44.275 210.314,45.178 209.559,46.093 C207.995,47.983 206.54,49.924 205.191,51.92 C204.545,52.837 203.98,53.727 203.491,54.59 C203.277,54.912 203.115,55.143 203.006,55.278 C202.898,55.41 202.793,55.521 202.684,55.602 C202.575,55.682 202.496,55.667 202.444,55.56 L202.2,55.399 C201.714,55.076 201.282,54.67 200.906,54.185 C200.527,53.701 200.285,53.161 200.176,52.568 C200.015,51.974 199.976,51.353 200.055,50.707 C200.137,50.06 200.23,49.44 200.339,48.846 C200.448,48.092 200.569,47.334 200.7,46.58 C200.837,45.827 200.984,45.071 201.147,44.315 C201.901,40.593 202.873,36.941 204.06,33.351 C205.245,29.763 206.621,26.246 208.187,22.791 C208.293,22.47 208.428,22.144 208.589,21.823 C208.751,21.498 208.913,21.175 209.075,20.851 C207.834,20.742 206.594,20.661 205.353,20.609 C204.112,20.556 202.872,20.501 201.63,20.447 C200.659,20.338 199.703,20.274 198.76,20.244 C197.816,20.217 196.859,20.177 195.885,20.124 C195.456,20.071 195.037,20.001 194.631,19.921 C194.229,19.84 193.836,19.665 193.46,19.395 C193.46,19.342 193.298,19.165 192.972,18.87 C192.651,18.577 192.62,18.4 192.892,18.346 L192.892,18.346 Z" id="Shape"></path>
                <path d="M212.713,60.096 C212.607,59.5 212.647,58.962 212.834,58.476 C213.025,57.992 213.253,57.531 213.524,57.101 C213.253,56.993 212.958,56.79 212.633,56.494 C212.308,56.198 212.094,55.994 211.986,55.887 C211.553,55.456 211.312,54.945 211.257,54.35 C211.203,53.758 211.174,53.164 211.174,52.572 C211.069,49.769 211.475,47.015 212.388,44.319 C212.824,43.026 213.363,41.743 214.007,40.475 C214.654,39.209 215.385,38.008 216.194,36.875 C216.622,36.28 217.042,35.73 217.447,35.216 C217.849,34.702 218.296,34.177 218.784,33.638 C219.212,33.206 219.644,32.762 220.076,32.303 C220.506,31.845 221.021,31.482 221.615,31.211 C222.367,30.887 223.123,30.687 223.879,30.605 C224.634,30.524 225.39,30.512 226.146,30.565 C226.578,30.672 226.98,30.754 227.36,30.807 C227.736,30.861 228.142,30.995 228.575,31.211 C228.627,31.211 228.763,31.28 228.977,31.414 C229.192,31.548 229.299,31.669 229.299,31.777 C229.836,32.264 230.274,32.803 230.597,33.397 C230.808,33.773 230.959,34.164 231.039,34.57 C231.12,34.975 231.107,35.391 230.998,35.823 C230.838,36.307 230.579,36.781 230.23,37.239 C229.879,37.698 229.543,38.116 229.22,38.493 C228.465,39.41 227.653,40.244 226.792,41.001 C225.928,41.757 225.013,42.459 224.039,43.105 C223.016,43.807 221.977,44.468 220.924,45.086 C219.872,45.708 218.809,46.314 217.731,46.908 C217.085,47.231 216.329,47.582 215.463,47.961 C215.302,48.444 215.152,48.931 215.018,49.415 C214.883,49.901 214.761,50.415 214.655,50.953 C214.437,52.141 214.276,53.408 214.171,54.756 C214.115,54.863 214.102,55.08 214.131,55.403 C214.158,55.728 214.142,56.051 214.089,56.375 C214.41,55.94 214.762,55.553 215.141,55.201 C215.517,54.848 215.871,54.485 216.195,54.108 C217.111,53.03 218.043,51.952 218.986,50.872 C219.926,49.795 220.885,48.718 221.857,47.637 C223.743,45.586 225.753,43.645 227.885,41.812 C230.016,39.976 232.292,38.36 234.72,36.956 C235.8,36.364 236.932,36.148 238.12,36.308 C239.305,36.471 240.33,37.037 241.191,38.009 C241.462,38.278 241.545,38.438 241.436,38.493 C241.327,38.546 241.112,38.628 240.789,38.736 C240.195,38.898 239.642,39.114 239.129,39.384 C238.618,39.653 238.09,39.949 237.552,40.273 C234.965,41.73 232.537,43.403 230.274,45.29 C228.006,47.18 225.74,49.093 223.477,51.035 L216.438,57.346 C216.006,57.778 215.547,58.197 215.062,58.6 C214.578,59.005 214.116,59.424 213.686,59.854 C213.578,59.961 213.386,60.138 213.119,60.38 C212.851,60.62 212.713,60.526 212.713,60.096 L212.713,60.096 Z M223.311,38.735 C224.175,37.873 225.014,36.983 225.822,36.064 C226.631,35.15 227.36,34.177 228.007,33.151 L228.575,32.18 C226.253,33.261 224.176,34.757 222.342,36.671 C220.507,38.587 218.972,40.675 217.733,42.942 C217.354,43.481 217.004,44.153 216.681,44.964 C217.868,43.993 219,42.982 220.077,41.93 C221.154,40.877 222.233,39.814 223.311,38.735 L223.311,38.735 Z" id="Shape"></path>
            </g>
            <g id="Group" transform="translate(56.000000, 69.000000)">
                <polygon id="Shape" points="1.06 1.185 1.06 8.692 0.08 8.692 0.08 1.185"></polygon>
                <path d="M2.72,4.76 C2.72,4.192 2.709,3.746 2.677,3.301 L3.544,3.301 L3.601,4.181 L3.623,4.181 C3.889,3.68 4.513,3.178 5.404,3.178 C6.15,3.178 7.308,3.622 7.308,5.472 L7.308,8.692 L6.329,8.692 L6.329,5.585 C6.329,4.717 6.007,3.981 5.081,3.981 C4.447,3.981 3.945,4.437 3.768,4.983 C3.723,5.106 3.702,5.284 3.702,5.439 L3.702,8.692 L2.72,8.692 L2.72,4.76 L2.72,4.76 Z" id="Shape"></path>
                <path d="M12.444,2.009 L12.444,3.301 L13.847,3.301 L13.847,4.047 L12.444,4.047 L12.444,6.955 C12.444,7.622 12.632,8 13.179,8 C13.447,8 13.602,7.979 13.746,7.934 L13.79,8.681 C13.602,8.746 13.301,8.814 12.923,8.814 C12.466,8.814 12.098,8.659 11.864,8.403 C11.596,8.101 11.485,7.623 11.485,6.989 L11.485,4.048 L10.65,4.048 L10.65,3.302 L11.485,3.302 L11.485,2.312 L12.444,2.009 L12.444,2.009 Z" id="Shape"></path>
                <path d="M17.077,8.814 C15.63,8.814 14.492,7.746 14.492,6.042 C14.492,4.237 15.684,3.179 17.167,3.179 C18.715,3.179 19.762,4.305 19.762,5.943 C19.762,7.947 18.369,8.815 17.089,8.815 L17.077,8.815 L17.077,8.814 Z M17.111,8.079 C18.048,8.079 18.75,7.199 18.75,5.974 C18.75,5.061 18.292,3.913 17.135,3.913 C15.988,3.913 15.487,4.982 15.487,6.008 C15.487,7.188 16.155,8.079 17.102,8.079 L17.111,8.079 L17.111,8.079 Z" id="Shape"></path>
                <path d="M25.509,7.221 C25.509,7.779 25.52,8.268 25.554,8.692 L24.685,8.692 L24.63,7.812 L24.608,7.812 C24.363,8.247 23.784,8.814 22.826,8.814 C21.979,8.814 20.966,8.335 20.966,6.454 L20.966,3.302 L21.945,3.302 L21.945,6.276 C21.945,7.3 22.268,8.002 23.149,8.002 C23.805,8.002 24.262,7.546 24.44,7.101 C24.496,6.968 24.53,6.789 24.53,6.6 L24.53,3.303 L25.509,3.303 L25.509,7.221 L25.509,7.221 Z" id="Shape"></path>
                <path d="M30.978,8.502 C30.721,8.624 30.154,8.814 29.429,8.814 C27.804,8.814 26.744,7.712 26.744,6.052 C26.744,4.392 27.881,3.178 29.64,3.178 C30.219,3.178 30.732,3.324 30.999,3.468 L30.776,4.214 C30.541,4.091 30.174,3.958 29.639,3.958 C28.403,3.958 27.735,4.884 27.735,6.008 C27.735,7.255 28.536,8.023 29.606,8.023 C30.163,8.023 30.531,7.89 30.808,7.768 L30.978,8.502 L30.978,8.502 Z" id="Shape"></path>
                <path d="M32.125,0.783 L33.104,0.783 L33.104,4.146 L33.126,4.146 C33.282,3.869 33.527,3.612 33.828,3.457 C34.117,3.278 34.462,3.178 34.83,3.178 C35.555,3.178 36.712,3.622 36.712,5.484 L36.712,8.692 L35.733,8.692 L35.733,5.596 C35.733,4.716 35.41,3.992 34.485,3.992 C33.85,3.992 33.36,4.437 33.171,4.971 C33.115,5.106 33.105,5.249 33.105,5.439 L33.105,8.692 L32.126,8.692 L32.126,0.783 L32.125,0.783 Z" id="Shape"></path>
                <path d="M44.509,8.502 C44.253,8.624 43.685,8.814 42.961,8.814 C41.335,8.814 40.277,7.712 40.277,6.052 C40.277,4.392 41.413,3.178 43.172,3.178 C43.753,3.178 44.265,3.324 44.532,3.468 L44.308,4.214 C44.074,4.091 43.707,3.958 43.171,3.958 C41.936,3.958 41.268,4.884 41.268,6.008 C41.268,7.255 42.069,8.023 43.138,8.023 C43.695,8.023 44.063,7.89 44.341,7.768 L44.509,8.502 L44.509,8.502 Z" id="Shape"></path>
                <path d="M47.785,8.814 C46.337,8.814 45.2,7.746 45.2,6.042 C45.2,4.237 46.392,3.179 47.873,3.179 C49.422,3.179 50.469,4.305 50.469,5.943 C50.469,7.947 49.077,8.815 47.796,8.815 L47.785,8.815 L47.785,8.814 Z M47.819,8.079 C48.756,8.079 49.457,7.199 49.457,5.974 C49.457,5.061 48.999,3.913 47.841,3.913 C46.695,3.913 46.194,4.982 46.194,6.008 C46.194,7.188 46.862,8.079 47.809,8.079 L47.819,8.079 L47.819,8.079 Z" id="Shape"></path>
                <path d="M51.706,4.76 C51.706,4.192 51.693,3.746 51.661,3.301 L52.529,3.301 L52.586,4.181 L52.607,4.181 C52.874,3.68 53.498,3.178 54.389,3.178 C55.135,3.178 56.293,3.622 56.293,5.472 L56.293,8.692 L55.313,8.692 L55.313,5.585 C55.313,4.717 54.991,3.981 54.066,3.981 C53.431,3.981 52.931,4.437 52.752,4.983 C52.707,5.106 52.686,5.284 52.686,5.439 L52.686,8.692 L51.707,8.692 L51.707,4.76 L51.706,4.76 Z" id="Shape"></path>
                <path d="M57.887,4.76 C57.887,4.192 57.874,3.746 57.841,3.301 L58.711,3.301 L58.766,4.181 L58.789,4.181 C59.057,3.68 59.68,3.178 60.57,3.178 C61.317,3.178 62.475,3.622 62.475,5.472 L62.475,8.692 L61.496,8.692 L61.496,5.585 C61.496,4.717 61.172,3.981 60.247,3.981 C59.613,3.981 59.111,4.437 58.934,4.983 C58.889,5.106 58.867,5.284 58.867,5.439 L58.867,8.692 L57.888,8.692 L57.888,4.76 L57.887,4.76 Z" id="Shape"></path>
                <path d="M64.624,6.162 C64.646,7.488 65.482,8.034 66.463,8.034 C67.164,8.034 67.599,7.912 67.955,7.767 L68.134,8.457 C67.788,8.612 67.187,8.802 66.329,8.802 C64.681,8.802 63.678,7.699 63.678,6.085 C63.678,4.446 64.647,3.166 66.217,3.166 C67.977,3.166 68.434,4.715 68.434,5.706 C68.434,5.907 68.423,6.061 68.401,6.174 L64.624,6.162 L64.624,6.162 Z M67.488,5.462 C67.499,4.85 67.232,3.869 66.139,3.869 C65.138,3.869 64.714,4.783 64.636,5.462 L67.488,5.462 L67.488,5.462 Z" id="Shape"></path>
                <path d="M73.49,8.502 C73.234,8.624 72.666,8.814 71.942,8.814 C70.315,8.814 69.257,7.712 69.257,6.052 C69.257,4.392 70.393,3.178 72.153,3.178 C72.733,3.178 73.245,3.324 73.512,3.468 L73.289,4.214 C73.055,4.091 72.687,3.958 72.152,3.958 C70.916,3.958 70.247,4.884 70.247,6.008 C70.247,7.255 71.05,8.023 72.119,8.023 C72.676,8.023 73.043,7.89 73.322,7.768 L73.49,8.502 L73.49,8.502 Z" id="Shape"></path>
                <path d="M75.962,2.009 L75.962,3.301 L77.365,3.301 L77.365,4.047 L75.962,4.047 L75.962,6.955 C75.962,7.622 76.15,8 76.696,8 C76.965,8 77.12,7.979 77.265,7.934 L77.309,8.681 C77.12,8.746 76.82,8.814 76.44,8.814 C75.984,8.814 75.616,8.659 75.383,8.403 C75.114,8.101 75.003,7.623 75.003,6.989 L75.003,4.048 L74.168,4.048 L74.168,3.302 L75.003,3.302 L75.003,2.312 L75.962,2.009 L75.962,2.009 Z" id="Shape"></path>
                <path d="M78.936,2.311 C78.569,2.311 78.324,2.019 78.324,1.674 C78.324,1.329 78.579,1.051 78.959,1.051 C79.338,1.051 79.583,1.329 79.583,1.674 C79.583,2.019 79.338,2.311 78.947,2.311 L78.936,2.311 L78.936,2.311 Z M78.468,8.692 L78.468,3.301 L79.447,3.301 L79.447,8.692 L78.468,8.692 L78.468,8.692 Z" id="Shape"></path>
                <path d="M83.268,8.814 C81.821,8.814 80.684,7.746 80.684,6.042 C80.684,4.237 81.875,3.179 83.358,3.179 C84.906,3.179 85.953,4.305 85.953,5.943 C85.953,7.947 84.561,8.815 83.279,8.815 L83.268,8.815 L83.268,8.814 Z M83.301,8.079 C84.238,8.079 84.939,7.199 84.939,5.974 C84.939,5.061 84.483,3.913 83.324,3.913 C82.177,3.913 81.676,4.982 81.676,6.008 C81.676,7.188 82.345,8.079 83.291,8.079 L83.301,8.079 L83.301,8.079 Z" id="Shape"></path>
                <path d="M87.189,4.76 C87.189,4.192 87.177,3.746 87.144,3.301 L88.013,3.301 L88.068,4.181 L88.091,4.181 C88.359,3.68 88.982,3.178 89.872,3.178 C90.618,3.178 91.776,3.622 91.776,5.472 L91.776,8.692 L90.797,8.692 L90.797,5.585 C90.797,4.717 90.474,3.981 89.549,3.981 C88.914,3.981 88.414,4.437 88.236,4.983 C88.191,5.106 88.169,5.284 88.169,5.439 L88.169,8.692 L87.19,8.692 L87.19,4.76 L87.189,4.76 Z" id="Shape"></path>
            </g>
        </g>
    </g>
</svg>