<?xml version="1.0" encoding="utf-8"?>
<!-- Generator: Adobe Illustrator 16.0.0, SVG Export Plug-In . SVG Version: 6.00 Build 0)  -->
<!DOCTYPE svg PUBLIC "-//W3C//DTD SVG 1.1//EN" "http://www.w3.org/Graphics/SVG/1.1/DTD/svg11.dtd">
<svg version="1.1" id="Layer_1" xmlns="http://www.w3.org/2000/svg" xmlns:xlink="http://www.w3.org/1999/xlink" x="0px" y="0px"
	 width="256.387px" height="106.467px" viewBox="0 -17.865 256.387 106.467" enable-background="new 0 -17.865 256.387 106.467"
	 xml:space="preserve">
<g>
	<path fill="#E81E25" d="M5.94,59.947c0.647-0.918,1.443-1.713,2.388-2.386c0.942-0.676,1.955-1.228,3.034-1.659
		c1.24-0.541,2.494-0.999,3.761-1.375c1.267-0.379,2.55-0.757,3.844-1.134c5.715-1.511,11.569-2.562,17.559-3.154
		c0.592-0.111,1.197-0.177,1.819-0.203c0.619-0.028,1.254-0.069,1.902-0.122c3.398-4.531,6.635-9.141,9.708-13.837
		c3.075-4.69,6.016-9.492,8.819-14.399c1.294-2.267,2.535-4.544,3.723-6.839c1.185-2.29,2.317-4.652,3.397-7.079
		c1.079-2.265,1.941-4.502,2.588-6.715c0.325-0.863,0.567-1.806,0.729-2.833c-2.104,0.647-4.142,1.471-6.109,2.468
		c-1.969,1-3.869,2.091-5.704,3.277c-2.59,1.619-5.044,3.386-7.361,5.299c-2.321,1.917-4.56,3.953-6.717,6.109
		c-1.941,1.941-3.816,4.019-5.624,6.229c-1.807,2.212-3.275,4.613-4.408,7.202c-0.542,1.186-0.891,2.344-1.054,3.478
		c0,0.163,0,0.352,0,0.565c0,0.219-0.013,0.406-0.039,0.569c-0.028,0.161-0.096,0.256-0.203,0.283
		c-0.107,0.026-0.269-0.067-0.485-0.283c-0.863-0.864-1.416-1.928-1.659-3.197c-0.243-1.267-0.283-2.494-0.122-3.68
		c0.162-1.135,0.458-2.239,0.891-3.319c0.431-1.079,0.97-2.103,1.616-3.075c0.647-0.97,1.363-1.914,2.146-2.832
		c0.782-0.915,1.549-1.779,2.306-2.59c1.564-1.724,3.249-3.342,5.057-4.854c1.807-1.508,3.707-2.886,5.704-4.126
		c4.046-2.642,8.252-4.854,12.621-6.634c1.079-0.432,2.131-0.821,3.155-1.173c1.024-0.351,2.078-0.659,3.156-0.932
		c0.538-0.105,1.062-0.162,1.577-0.162c0.512,0,1.011,0.056,1.497,0.162c0.106,0,0.214,0.056,0.325,0.162
		c0.268,0.11,0.537,0.217,0.809,0.323c0.267,0.11,0.349,0.218,0.243,0.325c0.808,0.594,1.468,1.282,1.979,2.064
		c0.513,0.781,0.795,1.712,0.851,2.791c0.055,0.54-0.014,1.079-0.202,1.618c-0.189,0.54-0.363,1.08-0.525,1.617l-1.457,4.288
		c-1.081,2.752-2.265,5.461-3.559,8.134c-1.297,2.667-2.671,5.296-4.128,7.887c-2.374,4.154-4.949,8.169-7.728,12.054
		c-2.779,3.884-5.702,7.69-8.777,11.409c4.314-0.054,8.576,0.175,12.783,0.688c4.206,0.511,8.361,1.36,12.459,2.548
		c1.241,0.377,2.509,0.78,3.805,1.215c1.293,0.431,2.427,1.158,3.397,2.186c0.753,0.752,1.375,1.698,1.86,2.83
		c0.487,1.133,0.649,2.265,0.487,3.399c-0.057,0.43-0.191,0.552-0.406,0.364c-0.214-0.192-0.459-0.364-0.728-0.526
		c-1.08-0.756-2.157-1.323-3.236-1.699c-1.296-0.594-2.589-1.08-3.883-1.457c-1.297-0.378-2.618-0.729-3.966-1.053
		c-4.369-1.079-8.791-1.914-13.269-2.508s-9.008-0.944-13.593-1.053l-0.242,0.325c-0.917,1.078-1.89,2.089-2.914,3.033
		c-1.026,0.944-2.158,1.766-3.398,2.47c-1.08,0.646-2.32,1.133-3.722,1.457c-0.27,0.106-0.525,0.173-0.769,0.2
		c-0.241,0.027-0.498,0.066-0.767,0.122c-0.109,0-0.324,0.04-0.648,0.121c-0.324,0.08-0.537,0.067-0.646-0.039
		c-0.162,0-0.201-0.082-0.122-0.244c0.082-0.16,0.204-0.337,0.366-0.527c0.162-0.188,0.335-0.363,0.525-0.525
		c0.188-0.161,0.31-0.27,0.365-0.322l2.912-3.075l2.591-2.995c-0.38,0-0.743,0-1.093,0c-0.353,0-0.716,0.028-1.092,0.082
		c-2.752,0.108-5.462,0.297-8.132,0.566c-2.67,0.271-5.328,0.675-7.97,1.215c-1.294,0.268-2.589,0.577-3.884,0.929
		c-1.293,0.351-2.56,0.743-3.801,1.174c-0.541,0.216-1.08,0.419-1.619,0.605c-0.54,0.191-1.081,0.419-1.618,0.691l-1.132,0.484
		c-0.164,0.107-0.271,0.094-0.325-0.042C5.807,60.175,5.833,60.053,5.94,59.947z"/>
	<path fill="#E81E25" d="M72.204,50.886c-0.323-0.971-0.215-1.832,0.323-2.588l0.406-0.565c-0.272-0.216-0.528-0.433-0.77-0.649
		c-0.244-0.212-0.471-0.457-0.688-0.728c-0.324-0.538-0.431-1.16-0.324-1.86c0.109-0.701,0.191-1.319,0.245-1.86
		c0.108-0.701,0.214-1.39,0.322-2.063c0.109-0.672,0.271-1.334,0.485-1.982c0.323-1.243,0.715-2.471,1.173-3.682
		c0.457-1.214,1.037-2.388,1.741-3.521c0.375-0.537,0.738-1.063,1.093-1.577c0.349-0.513,0.738-1.013,1.171-1.497
		c0.322-0.432,0.675-0.849,1.052-1.254c0.376-0.405,0.835-0.715,1.377-0.931c0.43-0.106,0.874-0.148,1.334-0.12
		c0.457,0.027,0.902,0.067,1.335,0.12c0.432,0.109,0.756,0.188,0.972,0.244c0.215,0.054,0.403,0.119,0.565,0.203
		c0.162,0.08,0.215,0.148,0.162,0.201c-2.914,3.831-5.287,8.038-7.12,12.623c-0.271,0.808-0.541,1.604-0.809,2.387
		c-0.271,0.78-0.539,1.577-0.809,2.386c1.401-1.941,3.019-3.829,4.854-5.663c1.024-1.023,2.09-1.956,3.195-2.791
		c1.104-0.836,2.252-1.63,3.439-2.387c1.077-0.594,2.225-0.971,3.439-1.134c1.212-0.161,2.385-0.026,3.52,0.406
		c0.214,0.108,0.524,0.257,0.929,0.444c0.405,0.19,0.365,0.39-0.119,0.608c-1.134,0.432-2.185,0.916-3.158,1.457
		c-1.131,0.701-2.237,1.414-3.316,2.143c-1.078,0.729-2.131,1.498-3.153,2.306c-2.159,1.619-4.251,3.33-6.271,5.139
		c-2.022,1.808-3.898,3.734-5.625,5.785c-0.052,0.053-0.135,0.132-0.24,0.243c-0.11,0.107-0.218,0.212-0.323,0.323
		c-0.109,0.105-0.205,0.162-0.284,0.162C72.243,51.212,72.204,51.103,72.204,50.886z M91.218,12.293
		c-0.595,1.081-1.172,2.171-1.74,3.277c-0.566,1.107-1.146,2.198-1.738,3.276c0,0.055-0.069,0.203-0.203,0.446
		s-0.256,0.513-0.364,0.808c-0.108,0.299-0.298,0.635-0.566,1.014c-0.107,0-0.229-0.066-0.365-0.204
		c-0.135-0.135-0.2-0.229-0.2-0.284c-0.485-0.378-0.917-0.807-1.296-1.293c-0.917-1.187-1.173-2.414-0.767-3.683
		c0.402-1.267,1.172-2.331,2.305-3.195c0.431-0.324,0.902-0.527,1.418-0.606c0.51-0.081,1.062-0.096,1.655-0.043
		c0.054,0,0.19,0.015,0.406,0.043c0.215,0.026,0.432,0.067,0.647,0.12c0.214,0.055,0.416,0.109,0.606,0.162
		C91.204,12.187,91.272,12.24,91.218,12.293z"/>
	<path fill="#E81E25" d="M90.409,29.123c0.43-0.862,0.995-1.564,1.698-2.105c0.699-0.537,1.456-0.996,2.265-1.375l0.647-0.324
		c1.562-3.718,3.345-7.252,5.34-10.598c0.7-1.239,1.443-2.467,2.225-3.681c0.782-1.213,1.605-2.387,2.469-3.519
		c0.808-1.079,1.768-1.969,2.872-2.67c1.104-0.701,2.357-1.105,3.763-1.214c0.753-0.109,1.375-0.053,1.86,0.162
		c0.054,0,0.242,0.054,0.567,0.162c0.43-0.433,0.915-0.822,1.456-1.173c0.538-0.351,1.132-0.499,1.778-0.446
		c0.054,0,0.231,0.028,0.528,0.082c0.293,0.054,0.617,0.122,0.971,0.201c0.35,0.082,0.646,0.176,0.887,0.285
		c0.244,0.107,0.337,0.188,0.283,0.243c-0.969,1.024-1.887,2.117-2.748,3.277c-0.864,1.16-1.62,2.361-2.267,3.6
		c-0.27,0.593-0.513,1.188-0.728,1.778c-0.218,0.594-0.38,1.214-0.486,1.862c0,0.162-0.11,0.19-0.323,0.081
		c-0.217-0.107-0.443-0.244-0.688-0.404c-0.242-0.164-0.47-0.336-0.688-0.525c-0.214-0.19-0.323-0.312-0.323-0.366
		c-0.537-0.649-0.755-1.376-0.646-2.186c0.108-0.808,0.295-1.59,0.566-2.345c0.216-0.972,0.621-1.862,1.213-2.669
		c-0.756,0.646-1.431,1.348-2.021,2.103c-0.597,0.754-1.188,1.51-1.781,2.266c-0.809,1.131-1.577,2.292-2.307,3.479
		c-0.728,1.186-1.441,2.4-2.145,3.64c-0.595,1.079-1.159,2.131-1.698,3.156c-0.539,1.024-1.051,2.077-1.537,3.155
		c1.077-0.27,2.172-0.484,3.278-0.648c1.104-0.16,2.195-0.188,3.276-0.079c0.7,0.16,1.455,0.457,2.264,0.886
		c0.216,0.111,0.539,0.284,0.973,0.526c0.429,0.243,0.674,0.5,0.727,0.769c0.161,0.109,0.096,0.19-0.202,0.243
		c-0.296,0.056-0.473,0.108-0.524,0.162l-2.995,0.487c-1.185,0.269-2.359,0.513-3.518,0.727c-1.162,0.216-2.336,0.461-3.521,0.729
		l-1.616,0.323c-0.434,0.971-0.852,1.956-1.256,2.954c-0.404,0.999-0.823,1.982-1.253,2.952c-1.081,2.752-2.117,5.518-3.115,8.296
		c-0.999,2.779-1.902,5.62-2.71,8.533c-0.379,1.297-0.716,2.592-1.012,3.885c-0.296,1.296-0.579,2.615-0.851,3.964
		c-0.106,0.539-0.188,1.064-0.243,1.578c-0.054,0.513-0.106,1.063-0.16,1.657c0,0.109,0.027,0.312,0.08,0.61
		c0.056,0.294,0.026,0.496-0.08,0.605c-0.107,0.106-0.229,0.121-0.365,0.04c-0.134-0.079-0.256-0.149-0.363-0.203
		c-0.594-0.271-1.133-0.607-1.62-1.012c-0.485-0.403-0.698-0.957-0.646-1.656c0.057-0.597,0.108-1.188,0.161-1.782
		c0.057-0.595,0.137-1.187,0.245-1.778c0.161-1.402,0.377-2.793,0.646-4.168c0.271-1.375,0.539-2.766,0.809-4.166
		c0.648-2.914,1.39-5.783,2.226-8.617c0.836-2.831,1.793-5.623,2.872-8.373l0.73-1.944l-1.945,0.647
		c-0.052,0-0.175,0.043-0.362,0.122c-0.189,0.082-0.38,0.135-0.566,0.162c-0.189,0.028-0.337,0.028-0.446,0
		C90.22,29.459,90.246,29.339,90.409,29.123z"/>
	<path fill="#E81E25" d="M102.868,55.096c-0.109-0.596-0.069-1.134,0.118-1.62c0.191-0.484,0.42-0.945,0.69-1.375
		c-0.271-0.108-0.568-0.311-0.892-0.607s-0.538-0.5-0.646-0.607c-0.432-0.431-0.673-0.942-0.729-1.537
		c-0.053-0.592-0.078-1.186-0.078-1.778c-0.109-2.803,0.296-5.557,1.214-8.253c0.43-1.293,0.97-2.576,1.617-3.844
		c0.646-1.266,1.375-2.467,2.184-3.6c0.433-0.595,0.851-1.145,1.254-1.659c0.405-0.514,0.85-1.039,1.336-1.578
		c0.432-0.432,0.861-0.876,1.294-1.335c0.432-0.458,0.944-0.821,1.537-1.092c0.754-0.324,1.51-0.524,2.265-0.606
		c0.755-0.081,1.511-0.093,2.267-0.04c0.433,0.107,0.835,0.189,1.215,0.242c0.376,0.054,0.781,0.188,1.214,0.404
		c0.053,0,0.188,0.069,0.402,0.203s0.323,0.255,0.323,0.363c0.541,0.487,0.974,1.026,1.297,1.62
		c0.214,0.376,0.362,0.767,0.442,1.173c0.082,0.405,0.069,0.821-0.039,1.253c-0.163,0.484-0.417,0.958-0.766,1.416
		c-0.354,0.459-0.69,0.877-1.015,1.254c-0.755,0.917-1.563,1.751-2.428,2.508c-0.861,0.756-1.778,1.458-2.751,2.104
		c-1.023,0.702-2.063,1.363-3.115,1.981c-1.05,0.622-2.117,1.228-3.194,1.822c-0.647,0.323-1.404,0.674-2.267,1.053
		c-0.16,0.483-0.311,0.97-0.444,1.454c-0.136,0.486-0.256,1-0.364,1.538c-0.215,1.188-0.378,2.455-0.485,3.803
		c-0.055,0.107-0.07,0.324-0.04,0.647c0.026,0.325,0.014,0.648-0.043,0.972c0.325-0.435,0.677-0.822,1.054-1.174
		c0.377-0.353,0.728-0.716,1.052-1.093c0.918-1.078,1.848-2.156,2.791-3.236c0.944-1.077,1.902-2.154,2.873-3.235
		c1.887-2.051,3.896-3.992,6.026-5.825c2.132-1.836,4.411-3.452,6.838-4.856c1.078-0.592,2.211-0.808,3.397-0.648
		c1.186,0.163,2.211,0.729,3.076,1.701c0.271,0.269,0.35,0.429,0.24,0.484c-0.109,0.053-0.323,0.135-0.646,0.243
		c-0.595,0.162-1.146,0.378-1.661,0.648c-0.511,0.269-1.035,0.565-1.572,0.889c-2.591,1.457-5.021,3.13-7.283,5.017
		c-2.268,1.89-4.534,3.803-6.797,5.745l-7.038,6.311c-0.435,0.432-0.893,0.851-1.377,1.254c-0.486,0.405-0.945,0.824-1.376,1.254
		c-0.108,0.107-0.297,0.284-0.567,0.526C103.002,55.62,102.868,55.526,102.868,55.096z M113.467,33.735
		c0.86-0.862,1.699-1.752,2.508-2.671c0.808-0.914,1.538-1.887,2.184-2.913l0.568-0.971c-2.32,1.081-4.399,2.577-6.232,4.491
		c-1.833,1.916-3.371,4.004-4.61,6.271c-0.38,0.539-0.729,1.211-1.053,2.022c1.186-0.971,2.319-1.982,3.398-3.034
		C111.309,35.877,112.386,34.814,113.467,33.735z"/>
	<path fill="#E81E25" d="M170.669-3.81c-0.973,1.293-1.917,2.59-2.834,3.884c-0.914,1.294-1.835,2.616-2.749,3.964
		c2.43-0.808,4.84-1.522,7.24-2.143c2.401-0.621,4.84-1.174,7.321-1.66c1.241-0.269,2.525-0.497,3.845-0.687
		c1.323-0.189,2.63-0.284,3.923-0.284c0.918,0,1.782,0.162,2.591,0.485c0.214,0.109,0.62,0.284,1.213,0.526
		c0.596,0.243,0.944,0.524,1.054,0.85v0.162c0.755,1.241,1.062,2.496,0.929,3.762c-0.135,1.269-0.514,2.497-1.13,3.683
		c-0.624,1.186-1.394,2.304-2.307,3.355c-0.921,1.053-1.756,2.011-2.509,2.874c-3.939,4.478-8.364,8.524-13.271,12.137
		c-4.044,3.021-8.36,5.664-12.943,7.926c0.752,2.429,1.643,4.83,2.67,7.205c1.021,2.372,2.104,4.69,3.236,6.957
		c1.237,2.48,2.574,4.92,4.006,7.321c1.425,2.4,3.085,4.625,4.977,6.677c0.752,0.916,1.586,1.75,2.508,2.506
		c0.267,0.217,0.59,0.405,0.969,0.567c0.377,0.16,0.377,0.378,0,0.647c-0.756,0.593-1.726,0.877-2.914,0.851
		c-1.187-0.029-2.209-0.203-3.074-0.527c-1.08-0.323-1.98-0.85-2.709-1.577c-0.729-0.727-1.39-1.524-1.979-2.387
		c-0.76-0.97-1.476-1.969-2.148-2.994c-0.673-1.024-1.307-2.078-1.9-3.154c-1.026-1.89-1.931-3.804-2.71-5.745
		c-0.784-1.943-1.471-3.938-2.062-5.988c-0.488-1.457-0.903-2.927-1.256-4.41c-0.351-1.484-0.66-2.953-0.932-4.409
		c-1.022,0.433-2.062,0.822-3.111,1.174c-1.053,0.351-2.175,0.471-3.358,0.363c-1.24-0.163-2.455-0.539-3.64-1.132
		c-0.112,0-0.244-0.054-0.406-0.163c-0.162-0.107-0.354-0.214-0.567-0.324c-3.181,5.987-6.095,12.136-8.737,18.448l-1.297,3.316
		c0,0.109-0.065,0.35-0.201,0.729c-0.136,0.376-0.283,0.432-0.446,0.162c-0.646-1.023-1.092-2.131-1.332-3.317
		c-0.245-1.187-0.341-2.373-0.284-3.562c0.109-1.454,0.432-2.844,0.971-4.164c0.537-1.322,1.105-2.63,1.698-3.925
		c0.595-1.349,1.228-2.699,1.905-4.045c0.668-1.347,1.386-2.671,2.141-3.965c4.21-7.766,8.82-15.183,13.836-22.249
		c-1.456,0.807-2.884,1.646-4.286,2.508c-1.402,0.862-2.806,1.753-4.208,2.669c-1.891,1.241-3.765,2.548-5.622,3.924
		c-1.86,1.375-3.683,2.819-5.464,4.329c-0.861,0.646-1.7,1.323-2.508,2.023c-0.809,0.701-1.591,1.431-2.346,2.184l-2.186,2.184
		c-0.053,0.056-0.148,0.15-0.283,0.284c-0.137,0.134-0.271,0.255-0.402,0.362c-0.137,0.112-0.244,0.164-0.327,0.164
		c-0.079,0-0.118-0.107-0.118-0.323c-0.271-2.32,0.053-4.504,0.971-6.556c0.593-1.293,1.318-2.399,2.184-3.316
		c0.861-0.916,1.835-1.833,2.913-2.751c2.103-1.78,4.286-3.45,6.553-5.017c2.265-1.563,4.609-3.045,7.039-4.448
		c4.533-2.59,9.306-4.827,14.32-6.716c1.674-2.265,3.32-4.395,4.937-6.391c0.43-0.432,0.834-0.89,1.214-1.376
		c0.376-0.486,0.835-0.889,1.376-1.214c0.485-0.212,0.97-0.374,1.455-0.485c0.109,0,0.258,0,0.445,0
		C170.736-4.053,170.775-3.972,170.669-3.81z M158.937,20.544c-0.054,1.403-0.027,2.805,0.082,4.208
		c0.104,1.402,0.293,2.805,0.563,4.207c2.05-1.24,4.089-2.494,6.111-3.763c2.021-1.265,4.031-2.573,6.024-3.923
		c2.267-1.563,4.466-3.183,6.597-4.854c2.128-1.673,4.168-3.454,6.108-5.341c0.917-0.917,1.808-1.821,2.669-2.71
		c0.864-0.891,1.672-1.848,2.428-2.872c0.324-0.485,0.634-0.958,0.931-1.416c0.297-0.457,0.578-0.957,0.849-1.498
		c0.053-0.053,0.121-0.201,0.205-0.444c0.078-0.242,0.172-0.472,0.279-0.688c-0.268,0.054-0.564,0.07-0.887,0.042
		c-0.324-0.028-0.542-0.042-0.65-0.042c-0.646,0.054-1.293,0.109-1.94,0.162c-0.646,0.054-1.293,0.135-1.939,0.243
		c-1.406,0.271-2.778,0.554-4.128,0.849c-1.35,0.297-2.723,0.662-4.129,1.092c-3.019,0.917-5.958,1.955-8.815,3.115
		c-2.861,1.16-5.692,2.442-8.498,3.844c-1.239,2.051-2.44,4.125-3.599,6.23c-1.162,2.103-2.307,4.181-3.439,6.229l-6.311,11.651
		l0.728-0.244l2.914-1.212l5.906-2.994c-0.108-0.972-0.175-1.928-0.201-2.871c-0.029-0.946-0.017-1.901,0.04-2.874
		c0.053-0.539,0.093-1.079,0.121-1.617c0.023-0.539,0.199-1.024,0.525-1.457c0.323-0.323,0.577-0.565,0.769-0.729
		c0.188-0.16,0.35-0.294,0.486-0.403C158.87,20.354,158.937,20.381,158.937,20.544z"/>
	<path fill="#E81E25" d="M197.568,31.146c-0.433,2.049-0.781,4.072-1.052,6.069c-0.271,1.995-0.432,4.019-0.485,6.068v1.457
		c0.485-1.079,1.026-2.13,1.62-3.157c0.594-1.024,1.241-2.022,1.939-2.992c0.7-0.917,1.469-1.78,2.307-2.591
		c0.836-0.808,1.712-1.59,2.63-2.345c0.433-0.324,0.892-0.647,1.377-0.972c0.485-0.324,1.022-0.487,1.616-0.487
		c0.433-0.052,0.879,0.013,1.336,0.203c0.455,0.19,0.875,0.418,1.255,0.687c0.271,0.163,0.375,0.284,0.323,0.365
		c-0.053,0.08-0.191,0.175-0.405,0.283c-0.434,0.271-0.836,0.552-1.212,0.85c-0.38,0.296-0.786,0.606-1.215,0.929
		c-1.888,1.565-3.642,3.237-5.26,5.018c-0.755,0.917-1.484,1.833-2.183,2.75c-0.704,0.918-1.351,1.861-1.944,2.831
		c-0.647,1.082-1.105,2.05-1.373,2.914c-0.056,0.104-0.152,0.389-0.283,0.848c-0.139,0.458-0.284,0.58-0.445,0.364
		c-0.542,0-1.08-0.08-1.62-0.243c-0.324-0.107-0.647-0.27-0.97-0.484c-0.323-0.216-0.568-0.458-0.729-0.729
		c-0.268-0.377-0.417-0.809-0.442-1.294c-0.03-0.487-0.096-0.943-0.205-1.376c-0.108-1.023-0.135-2.034-0.079-3.033
		c0.053-0.997,0.188-2.009,0.403-3.035c0-0.163,0.056-0.405,0.16-0.728c-0.375,0.594-0.725,1.188-1.049,1.779
		c-0.322,0.596-0.676,1.19-1.053,1.781c-0.594,0.917-1.187,1.821-1.781,2.712c-0.594,0.889-1.268,1.767-2.02,2.628
		c-0.595,0.811-1.405,1.132-2.429,0.971c-0.218,0-0.515-0.081-0.891-0.242c0,0.054-0.056,0.082-0.161,0.082
		c-0.109,0-0.258-0.082-0.446-0.244c-0.188-0.16-0.336-0.27-0.444-0.324c-1.024-0.86-1.67-1.82-1.941-2.87
		c-0.27-1.053-0.214-2.2,0.162-3.44c0.755-2.75,1.943-5.366,3.561-7.848c0.808-1.241,1.726-2.37,2.749-3.397
		c1.025-1.026,2.104-1.997,3.236-2.914c0.973-0.753,1.996-1.401,3.076-1.942c1.077-0.538,2.262-0.701,3.559-0.485
		c0.054,0,0.206,0.052,0.446,0.161s0.512,0.23,0.809,0.364s0.525,0.271,0.686,0.402c0.166,0.138,0.192,0.232,0.083,0.285
		c-2.267,1.081-4.263,2.63-5.988,4.653c-1.727,2.023-3.233,4.085-4.527,6.19c-0.759,1.187-1.472,2.387-2.148,3.6
		c-0.673,1.214-1.229,2.497-1.656,3.843c-0.432,1.024-0.729,2.077-0.891,3.155c1.293-1.509,2.521-3.088,3.683-4.732
		c1.157-1.645,2.358-3.25,3.6-4.812l3.074-3.966l0.403-0.809c0.215-0.432,0.458-0.837,0.729-1.214
		c0.271-0.377,0.622-0.7,1.054-0.971c0.053-0.054,0.131-0.108,0.24-0.161c0.108-0.053,0.205-0.108,0.284-0.163
		c0.082-0.054,0.175-0.135,0.284-0.242c0.161-0.164,0.297-0.216,0.402-0.164C197.489,30.982,197.568,31.038,197.568,31.146z"/>
	<path fill="#E81E25" d="M197.892,13.346c2.966-0.109,5.919-0.216,8.86-0.326c2.938-0.105,5.892-0.214,8.859-0.321
		c0.376-0.81,0.768-1.605,1.174-2.388c0.402-0.782,0.818-1.55,1.255-2.306c0.428-0.756,0.834-1.457,1.213-2.104
		c0.378-0.646,0.997-1.105,1.858-1.375c0.053,0,0.284-0.028,0.689-0.083c0.405-0.052,0.822-0.093,1.254-0.12
		c0.429-0.026,0.809-0.041,1.132-0.041c0.324,0,0.458,0.054,0.405,0.161c-0.646,1.35-1.296,2.685-1.944,4.006
		c-0.646,1.322-1.267,2.656-1.859,4.005l6.392-0.486c2.751-0.269,5.489-0.592,8.213-0.972c2.722-0.376,5.381-1.051,7.972-2.023
		l2.67-1.293c0.052-0.054,0.2-0.148,0.445-0.283c0.241-0.134,0.333-0.094,0.28,0.122c0.108,0.107,0.122,0.297,0.043,0.565
		c-0.082,0.271-0.149,0.459-0.206,0.566c-0.266,1.24-0.821,2.293-1.656,3.154c-0.838,0.866-1.847,1.513-3.034,1.943
		c-1.889,0.701-3.833,1.201-5.826,1.497c-1.995,0.296-3.991,0.498-5.986,0.607c-1.836,0.107-3.668,0.175-5.502,0.203
		c-1.834,0.028-3.669,0.013-5.503-0.043c-1.347,2.97-2.64,5.937-3.88,8.901c-1.244,2.967-2.403,5.989-3.482,9.062
		c-0.646,1.779-1.268,3.56-1.86,5.341c-0.595,1.779-1.08,3.616-1.456,5.502c0.537-1.025,1.093-2.024,1.656-2.995
		c0.568-0.969,1.175-1.913,1.822-2.831c1.402-2.103,3.075-3.911,5.016-5.42c0.432-0.324,0.864-0.634,1.297-0.933
		c0.428-0.293,0.94-0.444,1.533-0.444c0.38,0.055,0.8,0.151,1.258,0.285c0.454,0.134,0.848,0.336,1.171,0.605
		c0.216,0.218,0.284,0.35,0.202,0.405c-0.08,0.053-0.255,0.163-0.525,0.324c-0.432,0.271-0.848,0.58-1.253,0.929
		c-0.402,0.353-0.796,0.717-1.177,1.093c-0.916,0.809-1.764,1.66-2.546,2.549c-0.782,0.891-1.552,1.794-2.307,2.709
		c-1.564,1.89-3.019,3.831-4.368,5.827c-0.646,0.917-1.211,1.807-1.7,2.67c-0.214,0.322-0.376,0.553-0.485,0.688
		c-0.108,0.132-0.213,0.243-0.322,0.324c-0.109,0.08-0.188,0.065-0.24-0.042l-0.244-0.161c-0.486-0.323-0.918-0.729-1.294-1.214
		c-0.379-0.484-0.621-1.024-0.73-1.617c-0.161-0.594-0.2-1.215-0.121-1.861c0.082-0.647,0.175-1.267,0.284-1.861
		c0.109-0.754,0.23-1.512,0.361-2.266c0.137-0.753,0.284-1.509,0.447-2.265c0.754-3.722,1.726-7.374,2.913-10.964
		c1.185-3.588,2.561-7.105,4.127-10.56c0.106-0.321,0.241-0.647,0.402-0.968c0.162-0.325,0.324-0.648,0.486-0.972
		c-1.241-0.109-2.481-0.19-3.722-0.242c-1.241-0.053-2.481-0.108-3.723-0.162c-0.971-0.109-1.927-0.173-2.87-0.203
		c-0.944-0.027-1.901-0.067-2.875-0.12c-0.429-0.053-0.848-0.123-1.254-0.203c-0.402-0.081-0.795-0.256-1.171-0.526
		c0-0.053-0.162-0.23-0.488-0.525C197.651,13.577,197.62,13.4,197.892,13.346z"/>
	<path fill="#E81E25" d="M217.713,55.096c-0.106-0.596-0.066-1.134,0.121-1.62c0.191-0.484,0.419-0.945,0.69-1.375
		c-0.271-0.108-0.566-0.311-0.891-0.607s-0.539-0.5-0.647-0.607c-0.433-0.431-0.674-0.942-0.729-1.537
		c-0.054-0.592-0.083-1.186-0.083-1.778c-0.105-2.803,0.301-5.557,1.214-8.253c0.436-1.293,0.975-2.576,1.619-3.844
		c0.647-1.266,1.378-2.467,2.187-3.6c0.428-0.595,0.848-1.145,1.253-1.659c0.402-0.514,0.849-1.039,1.337-1.578
		c0.428-0.432,0.86-0.876,1.292-1.335c0.43-0.458,0.945-0.821,1.539-1.092c0.752-0.324,1.508-0.524,2.264-0.606
		c0.755-0.081,1.511-0.093,2.267-0.04c0.432,0.107,0.834,0.189,1.214,0.242c0.376,0.054,0.782,0.188,1.215,0.404
		c0.052,0,0.188,0.069,0.402,0.203c0.215,0.134,0.322,0.255,0.322,0.363c0.537,0.487,0.975,1.026,1.298,1.62
		c0.211,0.376,0.362,0.767,0.442,1.173c0.081,0.405,0.068,0.821-0.041,1.253c-0.16,0.484-0.419,0.958-0.768,1.416
		c-0.351,0.459-0.687,0.877-1.01,1.254c-0.755,0.917-1.567,1.751-2.428,2.508c-0.864,0.756-1.779,1.458-2.753,2.104
		c-1.023,0.702-2.062,1.363-3.115,1.981c-1.052,0.622-2.115,1.228-3.193,1.822c-0.646,0.323-1.402,0.674-2.268,1.053
		c-0.161,0.483-0.311,0.97-0.445,1.454c-0.135,0.486-0.257,1-0.363,1.538c-0.218,1.188-0.379,2.455-0.484,3.803
		c-0.056,0.107-0.069,0.324-0.04,0.647c0.027,0.325,0.011,0.648-0.042,0.972c0.321-0.435,0.673-0.822,1.052-1.174
		c0.376-0.353,0.73-0.716,1.054-1.093c0.916-1.078,1.848-2.156,2.791-3.236c0.94-1.077,1.899-2.154,2.871-3.235
		c1.886-2.051,3.896-3.992,6.028-5.825c2.131-1.836,4.407-3.452,6.835-4.856c1.08-0.592,2.212-0.808,3.4-0.648
		c1.185,0.163,2.21,0.729,3.071,1.701c0.271,0.269,0.354,0.429,0.245,0.484c-0.109,0.053-0.324,0.135-0.647,0.243
		c-0.594,0.162-1.147,0.378-1.66,0.648c-0.511,0.269-1.039,0.565-1.577,0.889c-2.587,1.457-5.015,3.13-7.278,5.017
		c-2.268,1.89-4.534,3.803-6.797,5.745l-7.039,6.311c-0.432,0.432-0.891,0.851-1.376,1.254c-0.484,0.405-0.946,0.824-1.376,1.254
		c-0.108,0.107-0.3,0.284-0.567,0.526C217.851,55.62,217.713,55.526,217.713,55.096z M228.311,33.735
		c0.864-0.862,1.703-1.752,2.511-2.671c0.809-0.914,1.538-1.887,2.185-2.913l0.568-0.971c-2.322,1.081-4.399,2.577-6.233,4.491
		c-1.835,1.916-3.37,4.004-4.609,6.271c-0.379,0.539-0.729,1.211-1.052,2.022c1.187-0.971,2.319-1.982,3.396-3.034
		C226.154,35.877,227.233,34.814,228.311,33.735z"/>
</g>
<g>
	<path fill="#30302F" d="M62.06,65.185v7.507H61.08v-7.507H62.06z"/>
	<path fill="#30302F" d="M63.72,68.76c0-0.568-0.011-1.014-0.043-1.459h0.867l0.057,0.88h0.022c0.266-0.501,0.89-1.003,1.781-1.003
		c0.746,0,1.904,0.444,1.904,2.294v3.22h-0.979v-3.107c0-0.868-0.322-1.604-1.248-1.604c-0.634,0-1.136,0.456-1.313,1.002
		c-0.045,0.123-0.066,0.301-0.066,0.456v3.253H63.72V68.76z"/>
	<path fill="#30302F" d="M73.444,66.009v1.292h1.403v0.746h-1.403v2.908c0,0.667,0.188,1.045,0.735,1.045
		c0.268,0,0.423-0.021,0.567-0.066l0.044,0.747c-0.188,0.065-0.489,0.133-0.867,0.133c-0.457,0-0.825-0.155-1.059-0.411
		c-0.268-0.302-0.379-0.78-0.379-1.414v-2.941h-0.835v-0.746h0.835v-0.99L73.444,66.009z"/>
	<path fill="#30302F" d="M78.077,72.814c-1.447,0-2.585-1.068-2.585-2.772c0-1.805,1.192-2.863,2.675-2.863
		c1.548,0,2.595,1.126,2.595,2.764c0,2.004-1.393,2.872-2.673,2.872H78.077z M78.111,72.079c0.937,0,1.639-0.88,1.639-2.105
		c0-0.913-0.458-2.061-1.615-2.061c-1.147,0-1.648,1.069-1.648,2.095c0,1.18,0.668,2.071,1.615,2.071H78.111z"/>
	<path fill="#30302F" d="M86.509,71.221c0,0.558,0.011,1.047,0.045,1.471h-0.869l-0.055-0.88h-0.022
		c-0.245,0.435-0.824,1.002-1.782,1.002c-0.847,0-1.86-0.479-1.86-2.36v-3.152h0.979v2.974c0,1.024,0.323,1.726,1.204,1.726
		c0.656,0,1.113-0.456,1.291-0.901c0.056-0.133,0.09-0.312,0.09-0.501v-3.297h0.979V71.221z"/>
	<path fill="#30302F" d="M91.978,72.502c-0.257,0.122-0.824,0.312-1.549,0.312c-1.625,0-2.685-1.102-2.685-2.762
		s1.137-2.874,2.896-2.874c0.579,0,1.092,0.146,1.359,0.29l-0.223,0.746c-0.235-0.123-0.602-0.256-1.137-0.256
		c-1.236,0-1.904,0.926-1.904,2.05c0,1.247,0.801,2.015,1.871,2.015c0.557,0,0.925-0.133,1.202-0.255L91.978,72.502z"/>
	<path fill="#30302F" d="M93.125,64.783h0.979v3.363h0.022c0.156-0.277,0.401-0.534,0.702-0.689
		c0.289-0.179,0.634-0.279,1.002-0.279c0.725,0,1.882,0.444,1.882,2.306v3.208h-0.979v-3.096c0-0.88-0.323-1.604-1.248-1.604
		c-0.635,0-1.125,0.445-1.314,0.979c-0.056,0.135-0.066,0.278-0.066,0.468v3.253h-0.979V64.783z"/>
	<path fill="#30302F" d="M105.509,72.502c-0.256,0.122-0.824,0.312-1.548,0.312c-1.626,0-2.684-1.102-2.684-2.762
		s1.136-2.874,2.895-2.874c0.581,0,1.093,0.146,1.36,0.29l-0.224,0.746c-0.234-0.123-0.601-0.256-1.137-0.256
		c-1.235,0-1.903,0.926-1.903,2.05c0,1.247,0.801,2.015,1.87,2.015c0.557,0,0.925-0.133,1.203-0.255L105.509,72.502z"/>
	<path fill="#30302F" d="M108.785,72.814c-1.448,0-2.585-1.068-2.585-2.772c0-1.805,1.192-2.863,2.673-2.863
		c1.549,0,2.596,1.126,2.596,2.764c0,2.004-1.392,2.872-2.673,2.872H108.785z M108.819,72.079c0.937,0,1.638-0.88,1.638-2.105
		c0-0.913-0.458-2.061-1.616-2.061c-1.146,0-1.647,1.069-1.647,2.095c0,1.18,0.668,2.071,1.615,2.071H108.819z"/>
	<path fill="#30302F" d="M112.706,68.76c0-0.568-0.013-1.014-0.045-1.459h0.868l0.057,0.88h0.021
		c0.267-0.501,0.891-1.003,1.782-1.003c0.746,0,1.904,0.444,1.904,2.294v3.22h-0.98v-3.107c0-0.868-0.322-1.604-1.247-1.604
		c-0.635,0-1.135,0.456-1.314,1.002c-0.045,0.123-0.066,0.301-0.066,0.456v3.253h-0.979V68.76z"/>
	<path fill="#30302F" d="M118.887,68.76c0-0.568-0.013-1.014-0.046-1.459h0.87l0.055,0.88h0.023
		c0.268-0.501,0.891-1.003,1.781-1.003c0.747,0,1.905,0.444,1.905,2.294v3.22h-0.979v-3.107c0-0.868-0.324-1.604-1.249-1.604
		c-0.634,0-1.136,0.456-1.313,1.002c-0.045,0.123-0.067,0.301-0.067,0.456v3.253h-0.979V68.76z"/>
	<path fill="#30302F" d="M125.624,70.162c0.022,1.326,0.858,1.872,1.839,1.872c0.701,0,1.136-0.122,1.492-0.267l0.179,0.69
		c-0.346,0.155-0.947,0.345-1.805,0.345c-1.648,0-2.651-1.103-2.651-2.717c0-1.639,0.969-2.919,2.539-2.919
		c1.76,0,2.217,1.549,2.217,2.54c0,0.201-0.011,0.355-0.033,0.468L125.624,70.162z M128.488,69.462
		c0.011-0.612-0.256-1.593-1.349-1.593c-1.001,0-1.425,0.914-1.503,1.593H128.488z"/>
	<path fill="#30302F" d="M134.49,72.502c-0.256,0.122-0.824,0.312-1.548,0.312c-1.627,0-2.685-1.102-2.685-2.762
		s1.136-2.874,2.896-2.874c0.58,0,1.092,0.146,1.359,0.29l-0.223,0.746c-0.234-0.123-0.602-0.256-1.137-0.256
		c-1.236,0-1.905,0.926-1.905,2.05c0,1.247,0.803,2.015,1.872,2.015c0.557,0,0.924-0.133,1.203-0.255L134.49,72.502z"/>
	<path fill="#30302F" d="M136.962,66.009v1.292h1.403v0.746h-1.403v2.908c0,0.667,0.188,1.045,0.734,1.045
		c0.269,0,0.424-0.021,0.569-0.066l0.044,0.747c-0.189,0.065-0.489,0.133-0.869,0.133c-0.456,0-0.824-0.155-1.057-0.411
		c-0.269-0.302-0.38-0.78-0.38-1.414v-2.941h-0.835v-0.746h0.835v-0.99L136.962,66.009z"/>
	<path fill="#30302F" d="M139.936,66.311c-0.367,0-0.612-0.292-0.612-0.637s0.255-0.623,0.635-0.623
		c0.379,0,0.624,0.278,0.624,0.623s-0.245,0.637-0.636,0.637H139.936z M139.468,72.692v-5.391h0.979v5.391H139.468z"/>
	<path fill="#30302F" d="M144.268,72.814c-1.447,0-2.584-1.068-2.584-2.772c0-1.805,1.191-2.863,2.674-2.863
		c1.548,0,2.595,1.126,2.595,2.764c0,2.004-1.392,2.872-2.674,2.872H144.268z M144.301,72.079c0.937,0,1.638-0.88,1.638-2.105
		c0-0.913-0.456-2.061-1.615-2.061c-1.147,0-1.648,1.069-1.648,2.095c0,1.18,0.669,2.071,1.615,2.071H144.301z"/>
	<path fill="#30302F" d="M148.189,68.76c0-0.568-0.012-1.014-0.045-1.459h0.869l0.055,0.88h0.023
		c0.268-0.501,0.891-1.003,1.781-1.003c0.746,0,1.904,0.444,1.904,2.294v3.22h-0.979v-3.107c0-0.868-0.323-1.604-1.248-1.604
		c-0.635,0-1.135,0.456-1.313,1.002c-0.045,0.123-0.067,0.301-0.067,0.456v3.253h-0.979V68.76z"/>
</g>
</svg>
